<?xml version="1.0" encoding="utf-8"?>
<!-- Generator: Adobe Illustrator 17.0.0, SVG Export Plug-In . SVG Version: 6.00 Build 0)  -->
<!DOCTYPE svg PUBLIC "-//W3C//DTD SVG 1.1//EN" "http://www.w3.org/Graphics/SVG/1.1/DTD/svg11.dtd">
<svg version="1.1" id="图层_1" xmlns="http://www.w3.org/2000/svg" xmlns:xlink="http://www.w3.org/1999/xlink" x="0px" y="0px"
	 width="112.694px" height="46.471px" viewBox="263.878 217.211 112.694 46.471"
	 enable-background="new 263.878 217.211 112.694 46.471" xml:space="preserve">
<rect x="263.879" y="217.212" fill="#566168" width="112.809" height="46.472"/>
<g>
	<g>
		<path fill="#FFFFFF" d="M374.43,224.55"/>
		<g>
			<g>
				<path fill="#FFFFFF" d="M270.849,231.153h12.78v2.324h-12.78V231.153L270.849,231.153L270.849,231.153z M270.849,239.286h12.78
					v1.162h-12.78V239.286L270.849,239.286L270.849,239.286z M270.849,245.095h20.912v1.162h-20.912V245.095L270.849,245.095
					L270.849,245.095z M270.849,252.065h20.912v1.162h-20.912V252.065L270.849,252.065L270.849,252.065z M298.897,230.249
					c-0.004-0.03,0.082-0.056,0.073-0.086c-0.031-0.119-0.038-0.233-0.125-0.322l-11.801-11.828c-0.089-0.089-0.19-0.14-0.311-0.171
					c-0.03-0.008-0.049-0.312-0.082-0.317c-0.028-0.001-0.052-0.314-0.083-0.314h-17.437c-2.824,0-5.253,2.893-5.253,5.717v34.962
					c0,2.824,2.429,5.792,5.253,5.792h24.847c2.824,0,4.754-2.968,4.754-5.792v-27.549
					C298.732,230.31,298.902,230.28,298.897,230.249L298.897,230.249L298.897,230.249z M296.153,229.991h-5.429
					c-1.947,0-3.61-1.945-3.61-3.891v-5.432L296.153,229.991L296.153,229.991L296.153,229.991z M293.538,261.36h-23.967
					c-1.973,0-3.37-2.116-3.37-4.088v-33.724c0-1.972,1.397-4.013,3.37-4.013h16.381v6.904c0,2.724,1.975,4.714,4.699,4.714h5.758
					v26.117C296.409,259.243,295.51,261.36,293.538,261.36L293.538,261.36L293.538,261.36z"/>
			</g>
		</g>
		<g>
			<g>
				<path fill="#FFFFFF" d="M327.47,252.065c-0.644,0-1.255-1.402-2.136-2.352c-1.967,1.831-4.171,2.554-6.68,2.554
					c-4.442,0-6.995-3.012-6.995-6.438c0-3.118,2.177-5.284,4.501-6.707v-0.103c-1.162-1.492-1.923-3.153-1.923-4.781
					c0-2.781,1.988-5.629,5.786-5.629c2.849,0,4.847,1.899,4.847,4.849c0,2.408-1.74,4.307-5.225,6.105v0.101
					c2.324,2.238,4.303,4.71,5.761,6.338c1.051-1.593,1.963-4.393,2.404-6.717h2.712c-0.61,3.485-1.593,6.593-3.289,8.595
					c1.221,1.287,2.407,3.023,3.764,4.185L327.47,252.065L327.47,252.065z M323.876,247.905c-1.356-1.493-3.9-4.274-6.443-7.189
					c-1.221,0.78-2.95,2.238-2.95,4.645c0,2.611,1.933,4.613,4.68,4.613C321.129,249.974,322.791,249.091,323.876,247.905z
					 M316.924,233.967c0,1.628,0.746,2.882,1.73,4.103c2.306-1.322,3.798-2.543,3.798-4.475c0-1.39-0.78-2.95-2.644-2.95
					C317.908,230.644,316.924,232.204,316.924,233.967z"/>
			</g>
		</g>
		<g>
			<path fill="#FFFFFF" d="M350.997,234.834c-1.998,0-3.624,1.626-3.624,3.625s1.626,3.625,3.624,3.625
				c1.999,0,3.625-1.626,3.625-3.625C354.622,236.461,352.996,234.834,350.997,234.834z M350.997,240.012
				c-0.856,0-1.553-0.697-1.553-1.553c0-0.856,0.697-1.553,1.553-1.553c0.857,0,1.554,0.697,1.554,1.553
				C352.551,239.316,351.854,240.012,350.997,240.012z"/>
			<path fill="#FFFFFF" d="M374.808,219.571c-1.212-1.44-2.796-2.36-4.49-2.36h-22.469c-1.669,0-3.731,0.932-4.987,2.335
				c-1.221,1.364-2.305,3.268-2.305,5.003v32.738c0,3.445,3.572,6.395,7.292,6.395h22.469c3.642,0,6.254-2.893,6.254-6.395V224.55
				C376.572,222.811,375.939,220.915,374.808,219.571z M347.849,261.36c-2.209,0-4.969-1.543-4.969-4.071v-3.108
				c4.647-4.985,10.774-6.793,18.017-5.087c-2.105,3.646-2.796,7.619-2.859,12.266L347.849,261.36L347.849,261.36z M374.249,257.288
				c0,2.268-1.454,4.071-3.93,4.071h-10.204c0.159-8.133,4.84-17.034,14.134-20.197V257.288z M374.249,238.858
				c-1.162,0.231-1.627,0.498-2.353,0.814c-2.902,1.264-5.317,2.959-7.445,5.294c-0.66,0.724-1.299,1.499-1.861,2.296
				c-4.769-1.252-9.81-1.143-13.693,0.362c-2.088,0.809-3.692,2.023-6.016,3.569V224.55c0-2.515,2.684-5.015,4.969-5.015h22.469
				c2.407,0,3.93,2.706,3.93,5.015V238.858z"/>
		</g>
	</g>
</g>
</svg>
