<?xml version="1.0" encoding="utf-8"?>
<!-- Generator: Adobe Illustrator 17.0.0, SVG Export Plug-In . SVG Version: 6.00 Build 0)  -->
<!DOCTYPE svg PUBLIC "-//W3C//DTD SVG 1.1//EN" "http://www.w3.org/Graphics/SVG/1.1/DTD/svg11.dtd">
<svg version="1.1" id="图层_1" xmlns="http://www.w3.org/2000/svg" xmlns:xlink="http://www.w3.org/1999/xlink" x="0px" y="0px"
	 width="139.167px" height="40.677px" viewBox="0 0 139.167 40.677" enable-background="new 0 0 139.167 40.677"
	 xml:space="preserve">
<polygon fill="#0071BC" points="17.702,40.677 139.167,40.677 139.167,0 0,0 "/>
<g>
	<g>
		<path fill="#FFFFFF" d="M45.416,31.226c-2.549-0.705-4.826-1.465-7.131-2.359c-0.406-0.136-0.786-0.244-1.193-0.271
			c-4.229-0.217-7.998-3.335-7.998-9.273c0-5.641,3.497-9.599,8.73-9.599c5.287,0,8.433,4.066,8.433,9.219
			c0,4.42-2.033,7.375-4.718,8.433v0.108c1.572,0.434,3.335,0.813,4.826,1.111L45.416,31.226z M42.732,19.105
			c0-3.497-1.709-6.697-5.017-6.697c-3.335,0-5.125,3.173-5.098,6.833c-0.027,3.662,1.844,6.671,5.044,6.671
			C40.888,25.912,42.732,22.929,42.732,19.105z"/>
		<path fill="#FFFFFF" d="M60.927,24.339c0,1.573,0.055,2.874,0.108,3.959h-2.928l-0.163-2.007h-0.054
			c-0.569,0.949-1.871,2.305-4.23,2.305c-2.413,0-4.609-1.437-4.609-5.748v-7.755h3.335v7.186c0,2.196,0.705,3.606,2.468,3.606
			c1.328,0,2.196-0.949,2.549-1.79c0.108-0.298,0.189-0.65,0.189-1.03v-7.972h3.335V24.339z"/>
		<path fill="#FFFFFF" d="M77.09,21.573c0,4.854-3.416,7.022-6.778,7.022c-3.742,0-6.616-2.575-6.616-6.806
			c0-4.338,2.847-6.996,6.833-6.996C74.46,14.794,77.09,17.56,77.09,21.573z M67.138,21.709c0,2.549,1.247,4.474,3.281,4.474
			c1.897,0,3.227-1.871,3.227-4.528c0-2.061-0.922-4.419-3.2-4.419C68.088,17.235,67.138,19.512,67.138,21.709z"/>
		<path fill="#FFFFFF" d="M83.652,11.324v3.769h3.173v2.495h-3.173v5.83c0,1.6,0.435,2.44,1.709,2.44
			c0.569,0,1.003-0.081,1.301-0.163l0.055,2.549c-0.488,0.19-1.355,0.326-2.413,0.326c-1.221,0-2.251-0.407-2.874-1.085
			c-0.705-0.759-1.03-1.952-1.03-3.688v-6.209h-1.898v-2.495h1.898V12.11L83.652,11.324z"/>
		<path fill="#FFFFFF" d="M92.9,11.405c0,1.003-0.732,1.79-1.898,1.79c-1.111,0-1.844-0.787-1.844-1.79
			c0-1.03,0.76-1.816,1.871-1.816C92.168,9.588,92.873,10.374,92.9,11.405z M89.348,28.298V15.092h3.361v13.206H89.348z"/>
		<path fill="#FFFFFF" d="M96.29,19.024c0-1.519-0.027-2.793-0.109-3.932h2.929l0.163,1.979h0.081
			c0.569-1.03,2.007-2.277,4.203-2.277c2.305,0,4.69,1.491,4.69,5.667v7.836h-3.335v-7.457c0-1.898-0.705-3.335-2.521-3.335
			c-1.329,0-2.251,0.949-2.604,1.952c-0.108,0.299-0.136,0.705-0.136,1.085v7.755H96.29V19.024z"/>
		<path fill="#FFFFFF" d="M123.867,15.092c-0.054,0.895-0.108,1.979-0.108,3.796v7.485c0,2.766-0.569,4.745-1.952,5.992
			c-1.383,1.22-3.281,1.6-5.098,1.6c-1.681,0-3.471-0.353-4.609-1.058l0.732-2.521c0.84,0.488,2.25,1.003,3.85,1.003
			c2.17,0,3.797-1.139,3.797-3.985v-1.139h-0.055c-0.759,1.166-2.115,1.952-3.851,1.952c-3.28,0-5.612-2.712-5.612-6.454
			c0-4.338,2.819-6.968,5.992-6.968c2.007,0,3.199,0.976,3.823,2.061h0.054l0.136-1.763H123.867z M120.424,20.379
			c0-0.298-0.027-0.623-0.108-0.895c-0.353-1.22-1.302-2.142-2.712-2.142c-1.87,0-3.254,1.627-3.254,4.311
			c0,2.251,1.14,4.067,3.228,4.067c1.247,0,2.331-0.813,2.711-2.006c0.081-0.353,0.136-0.813,0.136-1.193V20.379z"/>
	</g>
</g>
<g>
</g>
<g>
</g>
<g>
</g>
<g>
</g>
<g>
</g>
<g>
</g>
<g>
</g>
<g>
</g>
<g>
</g>
<g>
</g>
<g>
</g>
<g>
</g>
<g>
</g>
<g>
</g>
<g>
</g>
</svg>
