<?xml version="1.0" standalone="no"?><!DOCTYPE svg PUBLIC "-//W3C//DTD SVG 1.1//EN" "http://www.w3.org/Graphics/SVG/1.1/DTD/svg11.dtd"><svg t="1514884003842" class="icon" style="" viewBox="0 0 1024 1024" version="1.1" xmlns="http://www.w3.org/2000/svg" p-id="2305" xmlns:xlink="http://www.w3.org/1999/xlink" width="200" height="200"><defs><style type="text/css"></style></defs><path d="M950.579 897.575L786.547 720.547c69.788-74.802 112.561-175.084 112.561-285.189 0-230.648-187.67-418.421-418.421-418.421-230.648 0-418.318 187.67-418.318 418.421 0 230.75 187.67 418.421 418.421 418.421 91.993 0 177.233-29.88 246.407-80.43l165.158 178.256c7.777 8.493 18.419 12.689 29.164 12.689a39.83 39.83 0 0 0 27.015-10.54c15.963-14.94 16.987-40.113 2.047-56.178zM480.688 774.27c-186.852 0-338.912-152.06-338.912-338.912 0-186.852 152.06-338.912 338.912-338.912 186.852 0 338.912 152.06 338.912 338.912 0.102 186.852-151.958 338.912-338.912 338.912z" fill="#969696" p-id="2306"></path></svg>